<svg width="40" height="40" viewBox="0 0 40 40" fill="none" xmlns="http://www.w3.org/2000/svg">
<g clip-path="url(#clip0_10_7)">
<path d="M8.24252 7.5C6.57252 7.5 5.03002 8.335 4.10127 9.72625L0.625021 14.9225C0.215911 15.5352 -0.00165199 16.2558 2.14722e-05 16.9925V25.2737C-0.00228331 25.8286 0.181015 26.3684 0.520765 26.8071C0.860515 27.2458 1.33721 27.5584 1.87502 27.695L5.11752 28.5162C5.35072 29.6397 5.96321 30.6487 6.85221 31.3741C7.74122 32.0994 8.85265 32.497 10 32.5C12.315 32.5 14.2475 30.8987 14.805 28.75H26.445C27.0025 30.8987 28.935 32.5 31.25 32.5C33.565 32.5 35.4975 30.8987 36.055 28.75H37.5C38.8675 28.75 40 27.6175 40 26.25V21.68C39.9988 20.5658 39.6253 19.484 38.9389 18.6064C38.2524 17.7288 37.2924 17.1057 36.2113 16.8362L29.4525 15.1175L24.57 9.2975C24.1029 8.73547 23.5179 8.28309 22.8565 7.97245C22.195 7.66181 21.4733 7.50051 20.7425 7.5H8.24252ZM8.24252 10H13.75V15H3.59377L6.17252 11.1325V11.0938C6.399 10.7536 6.70684 10.4754 7.06811 10.2844C7.42938 10.0934 7.83264 9.99562 8.24127 10H8.24252ZM16.25 10H20.7425C21.4838 10 22.1825 10.3275 22.6563 10.8987L26.0938 15H16.25V10ZM2.50002 17.5H28.5938L35.625 19.2575C36.1646 19.3914 36.6432 19.7034 36.9834 20.143C37.3237 20.5826 37.5057 21.1241 37.5 21.68V26.25H36.055C35.4975 24.1013 33.565 22.5 31.25 22.5C28.935 22.5 27.0025 24.1013 26.445 26.25H14.805C14.2475 24.1013 12.315 22.5 10 22.5C7.78377 22.5 5.92252 23.965 5.27377 25.9763L2.50002 25.275V17.5ZM10 25C11.3963 25 12.5 26.1038 12.5 27.5C12.5 28.8962 11.3963 30 10 30C8.60377 30 7.50002 28.8962 7.50002 27.5C7.50002 26.1038 8.60377 25 10 25ZM31.25 25C32.6463 25 33.75 26.1038 33.75 27.5C33.75 28.8962 32.6463 30 31.25 30C29.8538 30 28.75 28.8962 28.75 27.5C28.75 26.1038 29.8538 25 31.25 25Z" fill="white"/>
</g>
<defs>
<clipPath id="clip0_10_7">
<rect width="40" height="40" fill="white"/>
</clipPath>
</defs>
</svg>
