<svg width="40" height="40" viewBox="0 0 40 40" fill="none" xmlns="http://www.w3.org/2000/svg">
<path d="M36.945 0.2125C37.1156 0.326594 37.2554 0.480923 37.3522 0.661865C37.449 0.842807 37.4998 1.0448 37.5 1.25V20C37.4999 20.2496 37.4251 20.4935 37.2852 20.7003C37.1453 20.907 36.9467 21.0671 36.715 21.16L36.25 20L36.715 21.16L36.7075 21.1625L36.6925 21.17L36.635 21.1925C36.3063 21.3231 35.9754 21.4482 35.6425 21.5675C34.9825 21.805 34.065 22.125 33.025 22.4425C30.985 23.0725 28.3275 23.75 26.25 23.75C24.1325 23.75 22.38 23.05 20.855 22.4375L20.785 22.4125C19.2 21.775 17.85 21.25 16.25 21.25C14.5 21.25 12.155 21.825 10.1575 22.4425C9.26314 22.7212 8.37694 23.0255 7.5 23.355V38.75C7.5 39.0815 7.3683 39.3995 7.13388 39.6339C6.89946 39.8683 6.58152 40 6.25 40C5.91848 40 5.60054 39.8683 5.36612 39.6339C5.1317 39.3995 5 39.0815 5 38.75V1.25C5 0.918479 5.1317 0.600537 5.36612 0.366117C5.60054 0.131696 5.91848 0 6.25 0C6.58152 0 6.89946 0.131696 7.13388 0.366117C7.3683 0.600537 7.5 0.918479 7.5 1.25V1.955C8.065 1.7575 8.74 1.53 9.475 1.305C11.515 0.68 14.175 0 16.25 0C18.35 0 20.06 0.6925 21.5525 1.2975L21.66 1.3425C23.215 1.97 24.57 2.5 26.25 2.5C28 2.5 30.345 1.925 32.3425 1.3075C33.4808 0.952031 34.6057 0.555099 35.715 0.1175L35.7625 0.1L35.7725 0.095H35.775L36.945 0.2125ZM35 3.0525C34.45 3.2475 33.8 3.47 33.085 3.69C31.06 4.32 28.405 4.9975 26.25 4.9975C24.035 4.9975 22.27 4.2825 20.7425 3.6625L20.7225 3.655C19.155 3.025 17.8475 2.5 16.25 2.5C14.5775 2.5 12.235 3.0725 10.2125 3.695C9.30027 3.97646 8.39578 4.2824 7.5 4.6125V20.695C8.05 20.5 8.7 20.2775 9.415 20.0575C11.44 19.425 14.095 18.75 16.25 18.75C18.3675 18.75 20.12 19.45 21.645 20.0625L21.715 20.0875C23.3 20.725 24.65 21.25 26.25 21.25C27.92 21.25 30.265 20.6775 32.2875 20.055C33.1997 19.7735 34.1042 19.4676 35 19.1375V3.055V3.0525Z" fill="white"/>
</svg>
